<?xml version="1.0"?>

<svg width="94.085" xmlns="http://www.w3.org/2000/svg" viewBox="0 0 94.08483 90.360687" height="90.361">
 <path d="m86.035 36.328a1.001 1.001 0 0 0 -0.808 -0.68l-25.767-3.742-11.52-23.346a1.003 1.003 0 0 0 -0.897 -0.56 0.995 0.995 0 0 0 -0.895 0.559l-11.523 23.347-25.77 3.742a1 1 0 0 0 -0.804 0.684 0.988 0.988 0 0 0 0.25 1.023l18.644 18.176-4.398 25.66a0.992 0.992 0 0 0 0.398 0.977 0.993 0.993 0 0 0 1.051 0.078l23.047-12.113 23.047 12.11a0.978 0.978 0 0 0 0.465 0.116 1 1 0 0 0 0.984 -1.168l-4.402-25.664 18.643-18.172c0.274-0.265 0.371-0.664 0.254-1.027zm-20.672 18.137c-0.234 0.23-0.34 0.562-0.285 0.887l4.149 24.18-21.72-11.419a1.003 1.003 0 0 0 -0.929 0l-21.718 11.418 4.149-24.183a0.99 0.99 0 0 0 -0.29 -0.883l-17.57-17.13 24.281-3.525a0.99 0.99 0 0 0 0.754 -0.547l10.859-22 10.855 22c0.149 0.297 0.43 0.5 0.754 0.547l24.282 3.527z"></path>
 <path d="m49.137 66.914a0.5 0.5 0 0 0 0.207 0.676l16.722 8.793a0.497 0.497 0 0 0 0.676 -0.21 0.5 0.5 0 0 0 -0.21 -0.677l-16.723-8.789a0.496 0.496 0 0 0 -0.672 0.207zm-1.758-51.461a0.494 0.494 0 0 0 -0.668 0.227l-7.992 16.187a0.5 0.5 0 0 0 0.226 0.668 0.497 0.497 0 0 0 0.672 -0.227l7.988-16.187a0.5 0.5 0 0 0 -0.226 -0.668zm-30.586 24.007a0.5 0.5 0 1 0 -0.7 0.716l14.645 14.273-2.195 12.805a0.502 0.502 0 0 0 0.492 0.586 0.502 0.502 0 0 0 0.492 -0.418l2.243-13.063a0.502 0.502 0 0 0 -0.145 -0.441z"></path>
</svg>
