<?xml version="1.0"?>

<svg width="84.475" xmlns="http://www.w3.org/2000/svg" viewBox="0 0 84.474669 105.254669" height="105.25">
 <path d="m42.238 8c-14.66 0-26.586 11.926-26.586 26.586v13.874c-4.09 0.277-6.382 0.523-6.433 0.527a1.37 1.37 0 0 0 -1.219 1.361v43.828c0 0.695 0.52 1.277 1.207 1.363 0.152 0.016 15.012 1.715 33.031 1.715 18.016 0 32.875-1.7 33.024-1.715a1.37 1.37 0 0 0 1.215 -1.363v-43.824a1.373 1.373 0 0 0 -1.223 -1.36c-0.055-0.008-2.344-0.254-6.43-0.531v-13.879c0-14.652-11.93-26.582-26.586-26.582zm0 2.738c13.149 0 23.848 10.696 23.848 23.848v13.703c-2.742-0.164-5.48-0.293-8.223-0.394v-13.31c0-8.616-7.008-15.628-15.625-15.628s-15.628 7.012-15.628 15.629v13.309a370.06 370.06 0 0 0 -8.218 0.394v-13.707c0-13.145 10.699-23.844 23.847-23.844zm0 10.953c7.106 0 12.887 5.79 12.887 12.895v13.223a410.73 410.73 0 0 0 -12.887 -0.196c-4.734 0-9.039 0.075-12.886 0.196v-13.223c0-7.106 5.777-12.895 12.886-12.895zm0 28.657c4.735 0 9.043 0.078 12.887 0.199 3.656 0.101 7.309 0.266 10.96 0.484 0.99 0.059 1.9 0.121 2.74 0.172 2.21 0.156 3.882 0.297 4.913 0.39v41.357h-0.004c-3.875 0.395-16.593 1.57-31.496 1.57-14.906 0-27.625-1.175-31.5-1.57v-41.356c1.028-0.094 2.7-0.235 4.914-0.39 0.836-0.056 1.75-0.114 2.739-0.18 3.652-0.212 7.304-0.372 10.96-0.477 4.294-0.133 8.59-0.2 12.887-0.2zm-12.175 6.449c-0.567 0-1.024 0.46-1.024 1.027 0 0.27 0.11 0.504 0.27 0.688 0.191 0.203 0.453 0.343 0.753 0.343h38.848a1.026 1.026 0 1 0 0 -2.055h-0.086v-0.003zm-14.782 0.348a0.678 0.678 0 0 0 -0.629 0.328 0.689 0.689 0 0 0 0.629 1.04l8.196-0.001a0.687 0.687 0 0 0 0 -1.371h-8.197zm14.781 6.96a1.025 1.025 0 1 0 0 2.051h38.848c0.57 0 1.028-0.457 1.028-1.027 0-0.567-0.458-1.024-1.028-1.024zm-14.78 0.344a0.683 0.683 0 0 0 -0.688 0.68c0 0.379 0.304 0.687 0.687 0.687h8.196a0.689 0.689 0 0 0 0.687 -0.687 0.725 0.725 0 0 0 -0.117 -0.356 0.674 0.674 0 0 0 -0.57 -0.324zm14.78 6.957c-0.566 0-1.027 0.461-1.027 1.028 0 0.57 0.461 1.027 1.027 1.027h38.848c0.274 0.004 0.535-0.106 0.73-0.297a1.031 1.031 0 0 0 -0.73 -1.758zm-14.78 0.344a0.689 0.689 0 0 0 -0.63 1.043 0.685 0.685 0 0 0 0.63 0.328h8.195a0.685 0.685 0 1 0 0 -1.371zm14.78 6.96a1.027 1.027 0 1 0 0 2.055h38.848c0.274 0 0.535-0.105 0.727-0.3 0.195-0.192 0.3-0.453 0.3-0.727 0-0.27-0.105-0.531-0.3-0.726a1.025 1.025 0 0 0 -0.727 -0.297h-38.847zm-14.78 0.34a0.689 0.689 0 0 0 0 1.376h8.195a0.683 0.683 0 0 0 0.683 -0.688 0.682 0.682 0 0 0 -0.683 -0.683h-8.197zm14.78 6.966c-0.566 0-1.023 0.46-1.023 1.027 0 0.566 0.461 1.031 1.023 1.031h38.848a1.03 1.03 0 1 0 0 -2.058zm-14.78 0.343a0.685 0.685 0 0 0 -0.63 1.04 0.689 0.689 0 0 0 0.63 0.331h8.195a0.689 0.689 0 0 0 0.628 -1.043 0.685 0.685 0 0 0 -0.628 -0.328z"></path>
</svg>
